<svg xmlns="http://www.w3.org/2000/svg" viewBox="0 0 900 1100" width="900" height="1100" font-family="'Courier New', monospace">
  <defs>
    <linearGradient id="bgGrad" x1="0" y1="0" x2="0" y2="1">
      <stop offset="0%" stop-color="#0a0f1e"/>
      <stop offset="100%" stop-color="#0d1a2e"/>
    </linearGradient>
    <linearGradient id="boardGrad" x1="0" y1="0" x2="0" y2="1">
      <stop offset="0%" stop-color="#0f2a0f"/>
      <stop offset="100%" stop-color="#0a1f0a"/>
    </linearGradient>
    <filter id="glow">
      <feGaussianBlur stdDeviation="2" result="blur"/>
      <feMerge><feMergeNode in="blur"/><feMergeNode in="SourceGraphic"/></feMerge>
    </filter>
    <filter id="pinGlow">
      <feGaussianBlur stdDeviation="1.5" result="blur"/>
      <feMerge><feMergeNode in="blur"/><feMergeNode in="SourceGraphic"/></feMerge>
    </filter>
  </defs>

  <!-- Background -->
  <rect width="900" height="1100" fill="url(#bgGrad)"/>

  <!-- Grid dots -->
  <pattern id="dots" x="0" y="0" width="30" height="30" patternUnits="userSpaceOnUse">
    <circle cx="15" cy="15" r="1" fill="#1a2a3a" opacity="0.6"/>
  </pattern>
  <rect width="900" height="1100" fill="url(#dots)"/>

  <!-- Title -->
  <text x="450" y="42" text-anchor="middle" fill="#00d4ff" font-size="22" font-weight="bold" letter-spacing="4" filter="url(#glow)">ESP32-S3-WROOM-1</text>
  <text x="450" y="62" text-anchor="middle" fill="#4a7a9b" font-size="11" letter-spacing="6">PINOUT REFERENCE</text>
  <line x1="200" y1="72" x2="700" y2="72" stroke="#00d4ff" stroke-width="0.5" opacity="0.3"/>

  <!-- PCB Board body -->
  <rect x="290" y="85" width="320" height="930" rx="12" ry="12" fill="url(#boardGrad)" stroke="#1a4a1a" stroke-width="2"/>
  <rect x="295" y="90" width="310" height="920" rx="10" ry="10" fill="none" stroke="#0d3a0d" stroke-width="1"/>

  <!-- Module (top chip) -->
  <rect x="320" y="100" width="260" height="200" rx="6" ry="6" fill="#1a1a1a" stroke="#333" stroke-width="1.5"/>
  <rect x="330" y="108" width="240" height="185" rx="4" ry="4" fill="#222" stroke="#2a2a2a" stroke-width="1"/>
  <!-- Module label -->
  <text x="450" y="160" text-anchor="middle" fill="#aaa" font-size="10" letter-spacing="1">ESPRESSIF</text>
  <text x="450" y="178" text-anchor="middle" fill="#ccc" font-size="13" font-weight="bold" letter-spacing="1">ESP32-S3-WROOM-1</text>
  <text x="450" y="196" text-anchor="middle" fill="#666" font-size="8">N16R8</text>
  <!-- Antenna area -->
  <rect x="540" y="112" width="26" height="60" rx="2" fill="#1a1a1a" stroke="#333" stroke-width="1"/>
  <line x1="545" y1="118" x2="561" y2="118" stroke="#444" stroke-width="1"/>
  <line x1="545" y1="126" x2="561" y2="126" stroke="#444" stroke-width="1"/>
  <line x1="545" y1="134" x2="561" y2="134" stroke="#444" stroke-width="1"/>
  <line x1="545" y1="142" x2="561" y2="142" stroke="#444" stroke-width="1"/>
  <line x1="545" y1="150" x2="561" y2="150" stroke="#444" stroke-width="1"/>
  <line x1="545" y1="158" x2="561" y2="158" stroke="#444" stroke-width="1"/>
  <line x1="545" y1="166" x2="561" y2="166" stroke="#444" stroke-width="1"/>

  <!-- RGB LED indicator -->
  <circle cx="380" cy="820" r="10" fill="#111" stroke="#333" stroke-width="1"/>
  <circle cx="380" cy="820" r="6" fill="#1a1a3a" opacity="0.8"/>
  <text x="380" y="846" text-anchor="middle" fill="#5555ff" font-size="8">RGB</text>
  <text x="380" y="856" text-anchor="middle" fill="#5555ff" font-size="8">GPIO48</text>

  <!-- USB connectors at bottom -->
  <rect x="325" y="970" width="70" height="28" rx="4" fill="#2a2a2a" stroke="#555" stroke-width="1.5"/>
  <rect x="330" y="974" width="60" height="20" rx="2" fill="#1a1a1a" stroke="#444" stroke-width="1"/>
  <text x="360" y="1006" text-anchor="middle" fill="#666" font-size="8">UART</text>

  <rect x="505" y="970" width="70" height="28" rx="4" fill="#2a2a2a" stroke="#555" stroke-width="1.5"/>
  <rect x="510" y="974" width="60" height="20" rx="2" fill="#1a1a1a" stroke="#444" stroke-width="1"/>
  <text x="540" y="1006" text-anchor="middle" fill="#666" font-size="8">USB-OTG</text>

  <!-- ═══════════════════════════════════════════ -->
  <!-- LEFT SIDE PINS -->
  <!-- ═══════════════════════════════════════════ -->

  <!-- Pin data: [y, label, color, lineColor, safe] -->
  <!-- Colors: #ff6b6b=power, #ffd93d=warning, #6bcb77=safe, #4d9de0=io -->

  <!-- Helper: left pins go from x=290 outward to x=60 -->
  <!-- Pin holes on board left edge -->

  <!-- Row spacing: start y=310, step=30 -->

  <!-- 3V3 -->
  <circle cx="290" cy="320" r="5" fill="#c8a000" stroke="#ffd700" stroke-width="1.5"/>
  <line x1="285" y1="320" x2="180" y2="320" stroke="#ff6b6b" stroke-width="1.5" opacity="0.7"/>
  <text x="175" y="316" text-anchor="end" fill="#ff6b6b" font-size="11" font-weight="bold">3V3</text>
  <text x="175" y="328" text-anchor="end" fill="#ff6b6b" font-size="8">POWER</text>

  <!-- 3V3 -->
  <circle cx="290" cy="350" r="5" fill="#c8a000" stroke="#ffd700" stroke-width="1.5"/>
  <line x1="285" y1="350" x2="180" y2="350" stroke="#ff6b6b" stroke-width="1.5" opacity="0.7"/>
  <text x="175" y="346" text-anchor="end" fill="#ff6b6b" font-size="11" font-weight="bold">3V3</text>
  <text x="175" y="358" text-anchor="end" fill="#ff6b6b" font-size="8">POWER</text>

  <!-- RST -->
  <circle cx="290" cy="380" r="5" fill="#c8a000" stroke="#ffd700" stroke-width="1.5"/>
  <line x1="285" y1="380" x2="180" y2="380" stroke="#aaa" stroke-width="1.5" opacity="0.7"/>
  <text x="175" y="376" text-anchor="end" fill="#aaaaaa" font-size="11" font-weight="bold">RST</text>
  <text x="175" y="388" text-anchor="end" fill="#aaaaaa" font-size="8">RESET</text>

  <!-- GPIO4 ✅ -->
  <circle cx="290" cy="410" r="5" fill="#c8a000" stroke="#ffd700" stroke-width="1.5"/>
  <line x1="285" y1="410" x2="180" y2="410" stroke="#6bcb77" stroke-width="1.5" opacity="0.8"/>
  <text x="175" y="406" text-anchor="end" fill="#6bcb77" font-size="11" font-weight="bold">GPIO 4</text>
  <text x="175" y="418" text-anchor="end" fill="#6bcb77" font-size="8">ADC1 ✓</text>

  <!-- GPIO5 ✅ -->
  <circle cx="290" cy="440" r="5" fill="#c8a000" stroke="#ffd700" stroke-width="1.5"/>
  <line x1="285" y1="440" x2="180" y2="440" stroke="#6bcb77" stroke-width="1.5" opacity="0.8"/>
  <text x="175" y="436" text-anchor="end" fill="#6bcb77" font-size="11" font-weight="bold">GPIO 5</text>
  <text x="175" y="448" text-anchor="end" fill="#6bcb77" font-size="8">ADC1 ✓</text>

  <!-- GPIO6 ✅ -->
  <circle cx="290" cy="470" r="5" fill="#c8a000" stroke="#ffd700" stroke-width="1.5"/>
  <line x1="285" y1="470" x2="180" y2="470" stroke="#6bcb77" stroke-width="1.5" opacity="0.8"/>
  <text x="175" y="466" text-anchor="end" fill="#6bcb77" font-size="11" font-weight="bold">GPIO 6</text>
  <text x="175" y="478" text-anchor="end" fill="#6bcb77" font-size="8">ADC1 ✓</text>

  <!-- GPIO7 ✅ -->
  <circle cx="290" cy="500" r="5" fill="#c8a000" stroke="#ffd700" stroke-width="1.5"/>
  <line x1="285" y1="500" x2="180" y2="500" stroke="#6bcb77" stroke-width="1.5" opacity="0.8"/>
  <text x="175" y="496" text-anchor="end" fill="#6bcb77" font-size="11" font-weight="bold">GPIO 7</text>
  <text x="175" y="508" text-anchor="end" fill="#6bcb77" font-size="8">ADC1 ✓</text>

  <!-- GPIO15 ✅ -->
  <circle cx="290" cy="530" r="5" fill="#c8a000" stroke="#ffd700" stroke-width="1.5"/>
  <line x1="285" y1="530" x2="180" y2="530" stroke="#6bcb77" stroke-width="1.5" opacity="0.8"/>
  <text x="175" y="526" text-anchor="end" fill="#6bcb77" font-size="11" font-weight="bold">GPIO 15</text>
  <text x="175" y="538" text-anchor="end" fill="#6bcb77" font-size="8">DIGITAL ✓</text>

  <!-- GPIO16 ✅ -->
  <circle cx="290" cy="560" r="5" fill="#c8a000" stroke="#ffd700" stroke-width="1.5"/>
  <line x1="285" y1="560" x2="180" y2="560" stroke="#6bcb77" stroke-width="1.5" opacity="0.8"/>
  <text x="175" y="556" text-anchor="end" fill="#6bcb77" font-size="11" font-weight="bold">GPIO 16</text>
  <text x="175" y="568" text-anchor="end" fill="#6bcb77" font-size="8">DIGITAL ✓</text>

  <!-- GPIO17 ✅ -->
  <circle cx="290" cy="590" r="5" fill="#c8a000" stroke="#ffd700" stroke-width="1.5"/>
  <line x1="285" y1="590" x2="180" y2="590" stroke="#6bcb77" stroke-width="1.5" opacity="0.8"/>
  <text x="175" y="586" text-anchor="end" fill="#6bcb77" font-size="11" font-weight="bold">GPIO 17</text>
  <text x="175" y="598" text-anchor="end" fill="#6bcb77" font-size="8">DIGITAL ✓</text>

  <!-- GPIO18 ✅ -->
  <circle cx="290" cy="620" r="5" fill="#c8a000" stroke="#ffd700" stroke-width="1.5"/>
  <line x1="285" y1="620" x2="180" y2="620" stroke="#6bcb77" stroke-width="1.5" opacity="0.8"/>
  <text x="175" y="616" text-anchor="end" fill="#6bcb77" font-size="11" font-weight="bold">GPIO 18</text>
  <text x="175" y="628" text-anchor="end" fill="#6bcb77" font-size="8">DIGITAL ✓</text>

  <!-- GPIO8 / SDA ✅ -->
  <circle cx="290" cy="650" r="5" fill="#c8a000" stroke="#ffd700" stroke-width="1.5"/>
  <line x1="285" y1="650" x2="180" y2="650" stroke="#6bcb77" stroke-width="1.5" opacity="0.8"/>
  <text x="175" y="646" text-anchor="end" fill="#6bcb77" font-size="11" font-weight="bold">GPIO 8</text>
  <text x="175" y="658" text-anchor="end" fill="#6bcb77" font-size="8">I2C SDA ✓</text>

  <!-- GPIO3 ✅ -->
  <circle cx="290" cy="680" r="5" fill="#c8a000" stroke="#ffd700" stroke-width="1.5"/>
  <line x1="285" y1="680" x2="180" y2="680" stroke="#6bcb77" stroke-width="1.5" opacity="0.8"/>
  <text x="175" y="676" text-anchor="end" fill="#6bcb77" font-size="11" font-weight="bold">GPIO 3</text>
  <text x="175" y="688" text-anchor="end" fill="#6bcb77" font-size="8">ADC1 ✓</text>

  <!-- GPIO46 ⚠️ -->
  <circle cx="290" cy="710" r="5" fill="#c8a000" stroke="#ffd700" stroke-width="1.5"/>
  <line x1="285" y1="710" x2="180" y2="710" stroke="#ffd93d" stroke-width="1.5" opacity="0.8"/>
  <text x="175" y="706" text-anchor="end" fill="#ffd93d" font-size="11" font-weight="bold">GPIO 46</text>
  <text x="175" y="718" text-anchor="end" fill="#ffd93d" font-size="8">INPUT ONLY ⚠</text>

  <!-- GPIO9 / SCL ✅ -->
  <circle cx="290" cy="740" r="5" fill="#c8a000" stroke="#ffd700" stroke-width="1.5"/>
  <line x1="285" y1="740" x2="180" y2="740" stroke="#6bcb77" stroke-width="1.5" opacity="0.8"/>
  <text x="175" y="736" text-anchor="end" fill="#6bcb77" font-size="11" font-weight="bold">GPIO 9</text>
  <text x="175" y="748" text-anchor="end" fill="#6bcb77" font-size="8">I2C SCL ✓</text>

  <!-- GPIO10 ✅ -->
  <circle cx="290" cy="770" r="5" fill="#c8a000" stroke="#ffd700" stroke-width="1.5"/>
  <line x1="285" y1="770" x2="180" y2="770" stroke="#6bcb77" stroke-width="1.5" opacity="0.8"/>
  <text x="175" y="766" text-anchor="end" fill="#6bcb77" font-size="11" font-weight="bold">GPIO 10</text>
  <text x="175" y="778" text-anchor="end" fill="#6bcb77" font-size="8">SPI CS ✓</text>

  <!-- GPIO11 ✅ -->
  <circle cx="290" cy="800" r="5" fill="#c8a000" stroke="#ffd700" stroke-width="1.5"/>
  <line x1="285" y1="800" x2="180" y2="800" stroke="#6bcb77" stroke-width="1.5" opacity="0.8"/>
  <text x="175" y="796" text-anchor="end" fill="#6bcb77" font-size="11" font-weight="bold">GPIO 11</text>
  <text x="175" y="808" text-anchor="end" fill="#6bcb77" font-size="8">SPI MOSI ✓</text>

  <!-- GPIO12 ✅ -->
  <circle cx="290" cy="830" r="5" fill="#c8a000" stroke="#ffd700" stroke-width="1.5"/>
  <line x1="285" y1="830" x2="180" y2="830" stroke="#6bcb77" stroke-width="1.5" opacity="0.8"/>
  <text x="175" y="826" text-anchor="end" fill="#6bcb77" font-size="11" font-weight="bold">GPIO 12</text>
  <text x="175" y="838" text-anchor="end" fill="#6bcb77" font-size="8">SPI MISO ✓</text>

  <!-- GPIO13 ✅ -->
  <circle cx="290" cy="860" r="5" fill="#c8a000" stroke="#ffd700" stroke-width="1.5"/>
  <line x1="285" y1="860" x2="180" y2="860" stroke="#6bcb77" stroke-width="1.5" opacity="0.8"/>
  <text x="175" y="856" text-anchor="end" fill="#6bcb77" font-size="11" font-weight="bold">GPIO 13</text>
  <text x="175" y="868" text-anchor="end" fill="#6bcb77" font-size="8">SPI CLK ✓</text>

  <!-- GPIO14 ✅ -->
  <circle cx="290" cy="890" r="5" fill="#c8a000" stroke="#ffd700" stroke-width="1.5"/>
  <line x1="285" y1="890" x2="180" y2="890" stroke="#6bcb77" stroke-width="1.5" opacity="0.8"/>
  <text x="175" y="886" text-anchor="end" fill="#6bcb77" font-size="11" font-weight="bold">GPIO 14</text>
  <text x="175" y="898" text-anchor="end" fill="#6bcb77" font-size="8">DIGITAL ✓</text>

  <!-- GND -->
  <circle cx="290" cy="920" r="5" fill="#333" stroke="#666" stroke-width="1.5"/>
  <line x1="285" y1="920" x2="180" y2="920" stroke="#888" stroke-width="1.5" opacity="0.7"/>
  <text x="175" y="916" text-anchor="end" fill="#888888" font-size="11" font-weight="bold">GND</text>
  <text x="175" y="928" text-anchor="end" fill="#888888" font-size="8">GROUND</text>

  <!-- GND -->
  <circle cx="290" cy="950" r="5" fill="#333" stroke="#666" stroke-width="1.5"/>
  <line x1="285" y1="950" x2="180" y2="950" stroke="#888" stroke-width="1.5" opacity="0.7"/>
  <text x="175" y="946" text-anchor="end" fill="#888888" font-size="11" font-weight="bold">GND</text>
  <text x="175" y="958" text-anchor="end" fill="#888888" font-size="8">GROUND</text>

  <!-- ═══════════════════════════════════════════ -->
  <!-- RIGHT SIDE PINS -->
  <!-- ═══════════════════════════════════════════ -->

  <!-- GND top right -->
  <circle cx="610" cy="320" r="5" fill="#333" stroke="#666" stroke-width="1.5"/>
  <line x1="615" y1="320" x2="720" y2="320" stroke="#888" stroke-width="1.5" opacity="0.7"/>
  <text x="725" y="316" fill="#888888" font-size="11" font-weight="bold">GND</text>
  <text x="725" y="328" fill="#888888" font-size="8">GROUND</text>

  <!-- TX ⚠️ -->
  <circle cx="610" cy="350" r="5" fill="#c8a000" stroke="#ffd700" stroke-width="1.5"/>
  <line x1="615" y1="350" x2="720" y2="350" stroke="#ffd93d" stroke-width="1.5" opacity="0.8"/>
  <text x="725" y="346" fill="#ffd93d" font-size="11" font-weight="bold">TX</text>
  <text x="725" y="358" fill="#ffd93d" font-size="8">UART0 ⚠</text>

  <!-- RX ⚠️ -->
  <circle cx="610" cy="380" r="5" fill="#c8a000" stroke="#ffd700" stroke-width="1.5"/>
  <line x1="615" y1="380" x2="720" y2="380" stroke="#ffd93d" stroke-width="1.5" opacity="0.8"/>
  <text x="725" y="376" fill="#ffd93d" font-size="11" font-weight="bold">RX</text>
  <text x="725" y="388" fill="#ffd93d" font-size="8">UART0 ⚠</text>

  <!-- GPIO1 ✅ -->
  <circle cx="610" cy="410" r="5" fill="#c8a000" stroke="#ffd700" stroke-width="1.5"/>
  <line x1="615" y1="410" x2="720" y2="410" stroke="#6bcb77" stroke-width="1.5" opacity="0.8"/>
  <text x="725" y="406" fill="#6bcb77" font-size="11" font-weight="bold">GPIO 1</text>
  <text x="725" y="418" fill="#6bcb77" font-size="8">ADC1 ✓</text>

  <!-- GPIO2 ✅ -->
  <circle cx="610" cy="440" r="5" fill="#c8a000" stroke="#ffd700" stroke-width="1.5"/>
  <line x1="615" y1="440" x2="720" y2="440" stroke="#6bcb77" stroke-width="1.5" opacity="0.8"/>
  <text x="725" y="436" fill="#6bcb77" font-size="11" font-weight="bold">GPIO 2</text>
  <text x="725" y="448" fill="#6bcb77" font-size="8">ADC1 ✓</text>

  <!-- GPIO42 ✅ -->
  <circle cx="610" cy="470" r="5" fill="#c8a000" stroke="#ffd700" stroke-width="1.5"/>
  <line x1="615" y1="470" x2="720" y2="470" stroke="#6bcb77" stroke-width="1.5" opacity="0.8"/>
  <text x="725" y="466" fill="#6bcb77" font-size="11" font-weight="bold">GPIO 42</text>
  <text x="725" y="478" fill="#6bcb77" font-size="8">DIGITAL ✓</text>

  <!-- GPIO41 ✅ -->
  <circle cx="610" cy="500" r="5" fill="#c8a000" stroke="#ffd700" stroke-width="1.5"/>
  <line x1="615" y1="500" x2="720" y2="500" stroke="#6bcb77" stroke-width="1.5" opacity="0.8"/>
  <text x="725" y="496" fill="#6bcb77" font-size="11" font-weight="bold">GPIO 41</text>
  <text x="725" y="508" fill="#6bcb77" font-size="8">DIGITAL ✓</text>

  <!-- GPIO40 ✅ -->
  <circle cx="610" cy="530" r="5" fill="#c8a000" stroke="#ffd700" stroke-width="1.5"/>
  <line x1="615" y1="530" x2="720" y2="530" stroke="#6bcb77" stroke-width="1.5" opacity="0.8"/>
  <text x="725" y="526" fill="#6bcb77" font-size="11" font-weight="bold">GPIO 40</text>
  <text x="725" y="538" fill="#6bcb77" font-size="8">DIGITAL ✓</text>

  <!-- GPIO39 ✅ -->
  <circle cx="610" cy="560" r="5" fill="#c8a000" stroke="#ffd700" stroke-width="1.5"/>
  <line x1="615" y1="560" x2="720" y2="560" stroke="#6bcb77" stroke-width="1.5" opacity="0.8"/>
  <text x="725" y="556" fill="#6bcb77" font-size="11" font-weight="bold">GPIO 39</text>
  <text x="725" y="568" fill="#6bcb77" font-size="8">DIGITAL ✓</text>

  <!-- GPIO38 ✅ -->
  <circle cx="610" cy="590" r="5" fill="#c8a000" stroke="#ffd700" stroke-width="1.5"/>
  <line x1="615" y1="590" x2="720" y2="590" stroke="#6bcb77" stroke-width="1.5" opacity="0.8"/>
  <text x="725" y="586" fill="#6bcb77" font-size="11" font-weight="bold">GPIO 38</text>
  <text x="725" y="598" fill="#6bcb77" font-size="8">DIGITAL ✓</text>

  <!-- GPIO37 ✅ -->
  <circle cx="610" cy="620" r="5" fill="#c8a000" stroke="#ffd700" stroke-width="1.5"/>
  <line x1="615" y1="620" x2="720" y2="620" stroke="#6bcb77" stroke-width="1.5" opacity="0.8"/>
  <text x="725" y="616" fill="#6bcb77" font-size="11" font-weight="bold">GPIO 37</text>
  <text x="725" y="628" fill="#6bcb77" font-size="8">DIGITAL ✓</text>

  <!-- GPIO36 ✅ -->
  <circle cx="610" cy="650" r="5" fill="#c8a000" stroke="#ffd700" stroke-width="1.5"/>
  <line x1="615" y1="650" x2="720" y2="650" stroke="#6bcb77" stroke-width="1.5" opacity="0.8"/>
  <text x="725" y="646" fill="#6bcb77" font-size="11" font-weight="bold">GPIO 36</text>
  <text x="725" y="658" fill="#6bcb77" font-size="8">DIGITAL ✓</text>

  <!-- GPIO35 ✅ -->
  <circle cx="610" cy="680" r="5" fill="#c8a000" stroke="#ffd700" stroke-width="1.5"/>
  <line x1="615" y1="680" x2="720" y2="680" stroke="#6bcb77" stroke-width="1.5" opacity="0.8"/>
  <text x="725" y="676" fill="#6bcb77" font-size="11" font-weight="bold">GPIO 35</text>
  <text x="725" y="688" fill="#6bcb77" font-size="8">DIGITAL ✓</text>

  <!-- GPIO0 ⚠️ BOOT -->
  <circle cx="610" cy="710" r="5" fill="#c8a000" stroke="#ffd700" stroke-width="1.5"/>
  <line x1="615" y1="710" x2="720" y2="710" stroke="#ffd93d" stroke-width="1.5" opacity="0.8"/>
  <text x="725" y="706" fill="#ffd93d" font-size="11" font-weight="bold">GPIO 0</text>
  <text x="725" y="718" fill="#ffd93d" font-size="8">BOOT STRAP ⚠</text>

  <!-- GPIO45 ⚠️ -->
  <circle cx="610" cy="740" r="5" fill="#c8a000" stroke="#ffd700" stroke-width="1.5"/>
  <line x1="615" y1="740" x2="720" y2="740" stroke="#ffd93d" stroke-width="1.5" opacity="0.8"/>
  <text x="725" y="736" fill="#ffd93d" font-size="11" font-weight="bold">GPIO 45</text>
  <text x="725" y="748" fill="#ffd93d" font-size="8">BOOT STRAP ⚠</text>

  <!-- GPIO48 ⚠️ RGB LED -->
  <circle cx="610" cy="770" r="5" fill="#c8a000" stroke="#ffd700" stroke-width="1.5"/>
  <line x1="615" y1="770" x2="720" y2="770" stroke="#ffd93d" stroke-width="1.5" opacity="0.8"/>
  <text x="725" y="766" fill="#ffd93d" font-size="11" font-weight="bold">GPIO 48</text>
  <text x="725" y="778" fill="#ffd93d" font-size="8">LED WS2812 ⚠</text>

  <!-- GPIO47 ✅ -->
  <circle cx="610" cy="800" r="5" fill="#c8a000" stroke="#ffd700" stroke-width="1.5"/>
  <line x1="615" y1="800" x2="720" y2="800" stroke="#6bcb77" stroke-width="1.5" opacity="0.8"/>
  <text x="725" y="796" fill="#6bcb77" font-size="11" font-weight="bold">GPIO 47</text>
  <text x="725" y="808" fill="#6bcb77" font-size="8">DIGITAL ✓</text>

  <!-- GPIO21 ⚠️ USB -->
  <circle cx="610" cy="830" r="5" fill="#c8a000" stroke="#ffd700" stroke-width="1.5"/>
  <line x1="615" y1="830" x2="720" y2="830" stroke="#ffd93d" stroke-width="1.5" opacity="0.8"/>
  <text x="725" y="826" fill="#ffd93d" font-size="11" font-weight="bold">GPIO 21</text>
  <text x="725" y="838" fill="#ffd93d" font-size="8">USB D- ⚠</text>

  <!-- GPIO20 ⚠️ USB -->
  <circle cx="610" cy="860" r="5" fill="#c8a000" stroke="#ffd700" stroke-width="1.5"/>
  <line x1="615" y1="860" x2="720" y2="860" stroke="#ffd93d" stroke-width="1.5" opacity="0.8"/>
  <text x="725" y="856" fill="#ffd93d" font-size="11" font-weight="bold">GPIO 20</text>
  <text x="725" y="868" fill="#ffd93d" font-size="8">USB D+ ⚠</text>

  <!-- GPIO19 ✅ -->
  <circle cx="610" cy="890" r="5" fill="#c8a000" stroke="#ffd700" stroke-width="1.5"/>
  <line x1="615" y1="890" x2="720" y2="890" stroke="#6bcb77" stroke-width="1.5" opacity="0.8"/>
  <text x="725" y="886" fill="#6bcb77" font-size="11" font-weight="bold">GPIO 19</text>
  <text x="725" y="898" fill="#6bcb77" font-size="8">DIGITAL ✓</text>

  <!-- GND right bottom -->
  <circle cx="610" cy="920" r="5" fill="#333" stroke="#666" stroke-width="1.5"/>
  <line x1="615" y1="920" x2="720" y2="920" stroke="#888" stroke-width="1.5" opacity="0.7"/>
  <text x="725" y="916" fill="#888888" font-size="11" font-weight="bold">GND</text>
  <text x="725" y="928" fill="#888888" font-size="8">GROUND</text>

  <!-- GND right bottom 2 -->
  <circle cx="610" cy="950" r="5" fill="#333" stroke="#666" stroke-width="1.5"/>
  <line x1="615" y1="950" x2="720" y2="950" stroke="#888" stroke-width="1.5" opacity="0.7"/>
  <text x="725" y="946" fill="#888888" font-size="11" font-weight="bold">GND</text>
  <text x="725" y="958" fill="#888888" font-size="8">GROUND</text>

  <!-- ═══════════════════════════════════════════ -->
  <!-- LEGEND -->
  <!-- ═══════════════════════════════════════════ -->
  <line x1="200" y1="1020" x2="700" y2="1020" stroke="#00d4ff" stroke-width="0.5" opacity="0.3"/>

  <rect x="60" y="1030" width="12" height="12" rx="2" fill="#6bcb77"/>
  <text x="78" y="1041" fill="#6bcb77" font-size="11">GPIO livre para uso geral</text>

  <rect x="260" y="1030" width="12" height="12" rx="2" fill="#ffd93d"/>
  <text x="278" y="1041" fill="#ffd93d" font-size="11">Uso com restrição</text>

  <rect x="460" y="1030" width="12" height="12" rx="2" fill="#ff6b6b"/>
  <text x="478" y="1041" fill="#ff6b6b" font-size="11">Alimentação</text>

  <rect x="620" y="1030" width="12" height="12" rx="2" fill="#888"/>
  <text x="638" y="1041" fill="#888888" font-size="11">GND / Sistema</text>

  <text x="450" y="1070" text-anchor="middle" fill="#2a4a5a" font-size="9" letter-spacing="2">ADC2 (GPIO11–17) evitar com Wi-Fi ativo</text>
  <text x="450" y="1085" text-anchor="middle" fill="#1a3a4a" font-size="9" letter-spacing="2">kadupenido — ESP32-S3 DevKit Reference</text>
</svg>
